
<svg width="241px" height="179px" viewBox="0 0 241 179" version="1.1" xmlns="http://www.w3.org/2000/svg" xmlns:xlink="http://www.w3.org/1999/xlink">
    <defs>
        <polygon id="path-1" points="0 0 240.759604 0 240.759604 178.86406 0 178.86406"></polygon>
    </defs>
    <g id="Page-1" stroke="none" stroke-width="1" fill="none" fill-rule="evenodd">
        <g id="branding-guidelines" transform="translate(-907.000000, -584.000000)">
            <g id="logo-design" transform="translate(250.000000, 554.000000)">
                <g id="Group-3" transform="translate(657.000000, 30.000000)">
                    <mask id="mask-2" fill="white">
                        <use xlink:href="#path-1"></use>
                    </mask>
                    <g id="Clip-2"></g>
                    <path d="M163.843759,81.6920321 L152.518571,75.9948733 C152.517967,75.9870118 152.516759,75.9791503 152.516759,75.9712889 C152.516759,72.0405456 155.699892,68.8536199 159.626561,68.8536199 C163.552627,68.8536199 166.735759,72.0405456 166.735759,75.9712889 C166.735759,78.3194544 165.594784,80.3948868 163.843759,81.6920321 L163.843759,81.6920321 Z M151.612556,171.607481 L167.239504,171.607481 C167.478692,157.846856 170.406932,124.335154 192.238875,107.981448 C217.781251,88.847799 232.013539,68.5143666 233.397326,49.1793429 C234.673599,31.3434443 224.907965,20.080353 221.884895,17.053076 C215.713724,10.8757618 207.51006,7.39796115 198.784531,7.2606875 C190.119404,7.13550845 181.855338,10.2970355 175.530145,16.1979882 L180.064449,20.7376943 C184.374664,17.5265794 189.496669,15.8303125 194.883835,15.8303125 C208.584594,15.8303125 219.730391,26.9893902 219.730391,40.7064747 C219.730391,47.3506402 217.146436,53.5974983 212.453882,58.2962483 C198.375617,72.3912889 182.271501,64.1784544 163.624504,54.6702889 C150.61594,48.0376132 135.872055,40.5190084 117.917857,37.586674 C97.1272281,34.1905118 76.1421078,37.7251571 53.7611203,48.3907753 C51.6301729,49.4055118 50.007802,51.2777551 49.3089624,53.5267449 C48.6095188,55.777549 48.8843434,58.2400084 50.0639749,60.281576 L50.6281203,61.2570051 C50.6402005,61.2775659 50.6516767,61.2981267 50.6637569,61.3192922 L65.3399925,86.7167314 C67.6418747,90.7006909 72.7777719,92.1121301 76.7890025,89.8649544 L77.1701328,89.6514848 C77.3247594,89.5656132 77.48301,89.4912314 77.6436767,89.429549 L83.5792832,86.1041402 C84.4013409,85.5997956 95.3079499,78.8570591 104.290787,70.634549 C105.768195,69.282978 108.060414,69.3857821 109.41098,70.8643463 C110.761546,72.3435152 110.658865,74.6384645 109.181456,75.9906402 C99.3475689,84.9914375 87.7741328,92.0444003 87.2860927,92.3401132 C87.2504561,92.3624882 87.2142155,92.383049 87.1779749,92.4036098 L80.4052105,96.1976841 C80.2342757,96.2938361 80.0579048,96.3742652 79.8785138,96.4401807 C72.4999273,100.264492 63.2549499,97.6000524 59.0661404,90.3505524 L46.3354211,68.3196436 L43.6173759,70.1973294 C29.9927218,79.8324882 19.5421404,93.7654611 13.4259348,110.469306 C6.79511278,128.579147 5.47112281,149.718684 9.5977193,171.607481 L25.849213,171.607481 C27.6461429,157.850485 39.4448747,147.486022 53.3310652,147.486022 C67.2166516,147.486022 79.0159875,157.850485 80.8129173,171.607481 L96.6488521,171.607481 C98.446386,157.850485 110.245118,147.486022 124.130704,147.486022 C138.016895,147.486022 149.815627,157.850485 151.612556,171.607481 L151.612556,171.607481 Z M167.340373,178.864238 L151.520143,178.864238 C147.934135,178.864238 144.888113,176.176819 144.433897,172.613147 C143.136484,162.425265 134.407935,154.742779 124.130704,154.742779 C113.854078,154.742779 105.125529,162.425265 103.827511,172.613147 C103.3739,176.176819 100.327877,178.864238 96.7418697,178.864238 L80.7198997,178.864238 C77.1338922,178.864238 74.0878697,176.176819 73.6342581,172.613147 C72.3368446,162.425265 63.6082957,154.742779 53.3310652,154.742779 C43.0544386,154.742779 34.3252857,162.425265 33.0278722,172.613147 C32.5742607,176.176819 29.5282381,178.864238 25.9422306,178.864238 L9.51013784,178.864238 C6.08177694,178.864238 3.12937594,176.414478 2.49093734,173.038877 C-1.89659148,149.834188 -0.468711779,127.334008 6.62115789,107.971167 C13.2453358,89.8782584 24.6037444,74.7588057 39.4684311,64.2473936 L42.8231028,61.9294645 C41.4785764,58.5883328 41.3082456,54.844451 42.3876115,51.3708834 C43.6850251,47.1958294 46.694807,43.7210524 50.6456366,41.8385287 C104.295015,16.2735794 140.487296,34.7287213 166.913942,48.2039139 C186.665674,58.2750828 197.433361,63.0705895 207.328253,53.1657213 C210.65212,49.8372889 212.482271,45.4124814 212.482271,40.7064747 C212.482271,30.9908868 204.58786,23.0870693 194.883835,23.0870693 C191.048371,23.0870693 187.403774,24.3001571 184.344464,26.5945017 C181.515281,28.717103 177.49801,28.4316706 175.000429,25.9299037 L170.335659,21.2601807 C168.973617,19.8959105 168.211356,18.0073395 168.242764,16.077647 C168.274777,14.1485591 169.099251,12.2865963 170.504178,10.9688902 C178.217386,3.7314848 188.313414,-0.148461149 198.898085,0.00453547297 C209.517185,0.171440878 219.500867,4.40394426 227.00992,11.9219443 C230.582639,15.4989206 242.122855,28.7939037 240.626722,49.698201 C239.066564,71.5023361 224.247178,93.067603 196.581103,113.791691 C190.14598,118.611992 175.112774,133.915282 174.485208,171.826998 C174.421183,175.707549 171.215702,178.864238 167.340373,178.864238 L167.340373,178.864238 Z" id="Fill-1" fill="#02303A" mask="url(#mask-2)"></path>
                </g>
            </g>
        </g>
    </g>
</svg>