<?xml version="1.0" encoding="utf-8"?>
<!-- Generator: Adobe Illustrator 18.1.1, SVG Export Plug-In . SVG Version: 6.00 Build 0)  -->
<!DOCTYPE svg PUBLIC "-//W3C//DTD SVG 1.1//EN" "http://www.w3.org/Graphics/SVG/1.1/DTD/svg11.dtd">
<svg version="1.1" id="Layer_1" xmlns="http://www.w3.org/2000/svg" xmlns:xlink="http://www.w3.org/1999/xlink" x="0px" y="0px"
	 viewBox="0 0 697.1 132" enable-background="new 0 0 697.1 132" xml:space="preserve">
<path fill="#295127" d="M84.7,66.4c0-12-9.7-21.7-21.7-21.7c-12,0-21.7,9.7-21.7,21.7S51,88.1,63,88.1C75,88.1,84.7,78.4,84.7,66.4
	 M63,126.6c30.3,0,55.4-22.2,59.9-51.2h-19.5l-17.6,30.5H40.2L17.4,66.4l17.7-30.7l-9.9-17.2C11.3,29.7,2.4,46.8,2.4,66
	C2.4,99.5,29.5,126.6,63,126.6"/>
<path fill="#295127" d="M240.3,37.9C240.2,37.9,240.2,37.9,240.3,37.9c-14.9,0-26.9,12-26.9,26.9c0,14.9,0,26.7,0,26.7h14
	c0-4.4,0-19.5,0-26.7s5.8-12.9,12.9-12.9c0,0,0,0,0.1,0V37.9"/>
<path fill="#295127" d="M397.2,91.5C397.2,91.5,397.2,91.5,397.2,91.5c-14.9,0-26.9-12-26.9-26.9c0-14.9,0-52,0-52h14
	c0,4.4,0,44.9,0,52s5.8,12.9,12.9,12.9c0,0,0,0,0.1,0V91.5"/>
<path fill="#295127" d="M178.8,77.7c-7.1,0-12.9-5.8-12.9-12.9c0-7.1,5.8-12.9,12.9-12.9c7.1,0,12.9,5.8,12.9,12.9
	C191.7,72,185.9,77.7,178.8,77.7 M191.6,88.3c0,0.7,0,1.4,0,2c0,7.1-5.8,12.9-12.9,12.9c0,0,0,0-0.1,0v14c0,0,0,0,0.1,0
	c14.9,0,26.9-12,26.9-26.9c0-11.1,0-20.4,0-24.5c0-0.3,0.1-0.6,0.1-0.9c0-0.3-0.1-0.7-0.1-1c0-0.1,0-0.2,0-0.2h0
	c-0.7-14.3-12.3-25.7-26.8-25.7c-14.9,0-26.9,12-26.9,26.9c0,14.9,12,26.9,26.9,26.9C183.5,91.7,187.8,90.4,191.6,88.3"/>
<path fill="#295127" d="M257.1,64.8c0-7.1,5.8-12.9,12.9-12.9S283,57.7,283,64.8s-5.8,12.9-12.9,12.9S257.1,72,257.1,64.8
	 M243.2,64.8c0,14.9,12,26.9,26.9,26.9c4.7,0,9-1.3,12.8-3.4c0,2.1,0,3.5,0,3.5h14l0-26c0-0.3,0.1-0.6,0.1-1c0-0.3-0.1-0.7-0.1-1
	l0-0.2l0,0c-0.7-14.3-12.3-25.7-26.8-25.7C255.2,37.9,243.2,50,243.2,64.8"/>
<path fill="#295127" d="M318.5,64.8c0-7.1,5.8-12.9,12.9-12.9c6.9,0,12.5,5.4,12.8,12.2c0,0.4,0,0.6,0,0.6h0.1c0,0,0,0.1,0,0.1
	c0,7.1-5.8,12.9-12.9,12.9S318.5,72,318.5,64.8 M304.5,64.8c0,14.9,12,26.9,26.9,26.9s26.9-12,26.9-26.9c0-0.2-0.1-0.4-0.1-0.7
	l0-51.6h-14c0,2.2,0,15.9,0,28.7c-3.8-2.1-8.2-3.4-12.8-3.4C316.6,37.9,304.5,50,304.5,64.8"/>
<path fill="#295127" d="M418.3,59.7c0-1.3,3.9-8.6,12-8.6c6,0,11,5.1,12.5,8.6H418.3 M456.8,69.3l0.2-3.6
	c0-17.8-14.2-27.8-26.6-27.8c-14.9,0-27.2,10.8-27.2,26.9c0,16.1,12.7,27,28.2,27c7.1,0,13.7-3.2,18.7-8.2c-5-3.6-7.1-5.1-11-7.6
	c-2.2,1.5-5.3,2.8-8.4,2.6c-2.1-0.1-10.4-1-12.6-9.4L456.8,69.3z"/>
<path fill="#72BF44" d="M637.3,38.2C637.3,38.2,637.3,38.2,637.3,38.2c-14.9,0-26.9,12-26.9,26.9c0,14.9,0,26.7,0,26.7h14
	c0-4.4,0-19.5,0-26.7c0-7.1,5.8-12.9,12.9-12.9c0,0,0,0,0.1,0V38.2"/>
<path fill="#72BF44" d="M561.2,64.8c0-7.1,5.8-12.9,12.9-12.9c7.1,0,12.9,5.8,12.9,12.9s-5.8,12.9-12.9,12.9
	C567,77.7,561.2,71.9,561.2,64.8 M547.2,64.8c0,14.9,12,26.9,26.9,26.9c4.7,0,9-1.3,12.8-3.4c0,2.1,0,3.5,0,3.5h14l0-26
	c0-0.3,0.1-0.6,0.1-1c0-0.3-0.1-0.7-0.1-1l0-0.2l0,0c-0.7-14.3-12.3-25.7-26.8-25.7C559.3,37.9,547.2,49.9,547.2,64.8"/>
<path fill="#72BF44" d="M656.3,59.6c0-1.3,3.9-8.6,12-8.6c6,0,11,5.1,12.5,8.6H656.3 M694.9,69.2l0.2-3.6
	c0-17.8-14.2-27.8-26.6-27.8c-14.9,0-27.2,10.8-27.2,26.9s12.7,27,28.2,27c7.1,0,13.7-3.2,18.7-8.2c-5-3.6-7.1-5.1-11-7.6
	c-2.2,1.5-5.3,2.8-8.4,2.6c-2.1-0.1-10.4-1-12.6-9.4L694.9,69.2z"/>
<path fill="#72BF44" d="M539.2,64.9c0-14.9,0-25.6,0-25.6h-14c0,4.4,0,18.5,0,25.6c0,7.1-2.6,12.9-9.7,12.9c-2.5,0-4.8-0.8-6.8-2
	V39.4h-13.8v36.3c-2,1.3-4.4,2.1-6.9,2.1c-7.1,0-9.7-5.8-9.7-12.9c0-7.1,0-21.2,0-25.6h-14c0,0,0,10.8,0,25.6
	c0,14.8,8.8,26.8,23.6,26.9v0c0,0,0,0,0.1,0c0,0,0,0,0,0s0,0,0,0c0,0,0,0,0.1,0v0c5,0,9.7-1.4,13.7-3.8c4,2.4,8.7,3.8,13.7,3.8v0
	c0,0,0,0,0.1,0c0,0,0,0,0,0c0,0,0,0,0,0c0,0,0,0,0.1,0v0C530.4,91.7,539.2,79.7,539.2,64.9"/>
<path fill="#72BF44" d="M122.9,56.4c-4.6-28.9-29.7-51-59.9-51c-7.5,0-14.6,1.4-21.2,3.8L52,26.9h33.8l17,29.4H122.9"/>
</svg>
