<?xml version="1.0" encoding="utf-8"?>
<!-- Generator: Adobe Illustrator 18.1.1, SVG Export Plug-In . SVG Version: 6.00 Build 0)  -->
<!DOCTYPE svg PUBLIC "-//W3C//DTD SVG 1.1//EN" "http://www.w3.org/Graphics/SVG/1.1/DTD/svg11.dtd">
<svg version="1.1" xmlns="http://www.w3.org/2000/svg" xmlns:xlink="http://www.w3.org/1999/xlink" x="0px" y="0px"
	 viewBox="0 0 2016 552" enable-background="new 0 0 2016 552" xml:space="preserve">
<g id="LOGO_MARK">
	<ellipse fill="#FFFFFF" cx="274.7" cy="277.5" rx="266.3" ry="266.4"/>
	<circle fill="#036635" cx="274.4" cy="278.6" r="95.5"/>
	<g>
		<path fill="#82B841" d="M451.1,317.8l-77.3,133H175.4L76.7,279.1l76.7-135.7l-44.1-74.7C47.8,117.5,8.4,192.9,8.4,277.5
			c0,147.1,119.3,266.4,266.4,266.4c133.8,0,244.5-98.6,263.5-227.2l-0.5,0.3L451.1,317.8z"/>
		<path fill="#036635" d="M373.4,106.4L448.1,235h89.8c-20.3-126.9-130.4-223.9-263-223.9c-33.3,0-65.2,6.1-94.6,17.3l45.1,78H373.4
			z"/>
	</g>
</g>
<g id="LOGO_TYPE">
	<g>
		<path fill="#82B841" d="M875,172.8c-4.7-3.4-9.8-5.1-15.3-5.1c-6.2,0-11.1,1.5-14.8,4.5c-3,2.5-5.3,5.3-6.8,8.2
			c0,0-0.1,0.1-0.3,0.3c0,0,0,0,0,0l-0.1-0.1c-9.5-6.6-20.1-11.7-31.3-15c-11.2-3.3-22.6-4.9-33.8-4.9c-13.4,0-26.8,2.3-40,6.9
			c-13.3,4.6-25.3,11.8-35.8,21.2c-10.5,9.5-19.1,21.5-25.4,35.8c-6.3,14.3-9.6,31.2-9.6,50.2c0,19,3.3,35.9,9.8,50.2
			c6.4,14.2,15,26.3,25.3,35.8c10.4,9.6,22.4,16.8,35.7,21.5c13.1,4.6,26.6,6.9,40,6.9c11.3,0,22.6-1.6,33.8-4.7
			c10.7-3,20.7-7.7,29.8-14.1v1.7c-0.5,11-2.6,20.5-6.3,28.3c-3.8,7.9-8.6,14.4-14.3,19.3c-5.7,5-12.4,8.8-19.7,11.2
			c-7.6,2.5-15.4,3.8-23.2,3.8c-10,0-19.5-2-28.1-5.9l-0.8-0.3c-1-0.3-2.2-0.7-4-1.1c-2.7-0.7-5.7-0.7-8.6-0.1
			c-3.1,0.7-6.2,2.3-9.1,4.8c-2.8,2.4-5.1,5.6-7.1,9.9c-3.7,7.5-2.8,13.7-1.4,17.5c2,5.3,5.8,9.5,11.2,12.2l0.3,0.2
			c14.8,6.6,30.8,9.9,47.6,9.9c13.4,0,26.8-2.3,40-6.9c13.3-4.7,25.3-11.8,35.6-21.2c10.4-9.4,18.9-21.5,25.4-35.7
			c6.5-14.3,9.8-31.2,9.8-50.2V191.3C883.2,181,878.7,175.6,875,172.8z M772.5,207.9c8.1,0,16.2,1.3,23.9,4
			c7.5,2.6,14.3,6.5,20.2,11.8c5.8,5.3,10.5,12.2,14.1,20.6c3.6,8.5,5.4,18.7,5.4,30.5c0,12-1.8,22.3-5.4,30.7
			c-3.6,8.3-8.3,15.2-14.1,20.7c-5.8,5.4-12.6,9.4-20.1,12c-15.6,5.3-32.3,5.3-47.9,0c-7.5-2.5-14.3-6.6-20.1-12
			c-5.8-5.4-10.6-12.4-14.2-20.7c-3.6-8.3-5.4-18.7-5.4-30.7c0-11.8,1.8-22.1,5.4-30.5c3.5-8.4,8.3-15.3,14.1-20.6
			c5.9-5.3,12.6-9.3,20-11.9C756,209.2,764.1,207.9,772.5,207.9z"/>
		<path fill="#82B841" d="M1087.1,171.7c-3.4-2-7.2-3.7-11.4-5.1c-4.1-1.4-8.4-2.4-12.7-3.2c-4.3-0.8-8.6-1.4-12.9-1.8
			c-4.3-0.4-8.2-0.6-11.6-0.6c-16.5,0-31.8,3-45.3,8.8c-13.5,5.8-25.3,14-35,24.2c-9.7,10.2-17.3,22.4-22.6,36.3
			c-5.3,13.8-7.9,29-7.9,45.1v85.7c0,7.2,3.1,13.2,8.6,16.9c4.6,3,9.6,4.5,15,4.5c5.3,0,10.4-1.5,14.9-4.5c5.6-3.6,8.6-9.6,8.6-16.9
			v-85.7c0-10,1.5-19.2,4.5-27.5c2.9-8.1,7.1-15.1,12.6-21c5.4-5.8,12.1-10.5,19.8-13.8c7.7-3.3,16.7-5,26.8-5
			c7.6,0,14.1,1,19.4,2.8c7.2,2.6,13.3,3.8,18.5,3.8c5.8,0,11-1.9,14.9-5.6c3.5-3.3,5.9-7.3,7-11.8c1.1-4.6,0.9-9.3-0.8-14
			C1095.6,178.5,1092,174.4,1087.1,171.7z"/>
		<path fill="#82B841" d="M1327.6,173.5c-4.7-3.6-10.2-5.4-16.2-5.4c-4,0-7.9,0.9-11.5,2.7c-4.2,2.1-7.3,5.4-9.4,9.8
			c-0.1,0.2-0.2,0.3-0.3,0.5l-0.1,0c-9.5-6.6-20.1-11.7-31.3-15c-11.2-3.3-22.5-4.9-33.8-4.9c-13.4,0-26.8,2.3-40,6.9
			c-13.3,4.6-25.3,11.8-35.7,21.2c-10.4,9.5-18.9,21.5-25.4,35.7c-6.5,14.3-9.8,31.2-9.8,50.2c0,19,3.3,35.9,9.8,50.2
			c6.4,14.2,15,26.3,25.3,35.8c10.4,9.6,22.4,16.8,35.7,21.5c13.1,4.6,26.6,6.9,40,6.9c11.3,0,22.7-1.7,33.8-4.9
			c11.3-3.3,21.8-8.3,31.3-15l0.1-0.1c0.1,0,0.1-0.1,0.2-0.1c0,0.1,0.1,0.1,0.1,0.2c2,4.3,5.1,7.6,9.1,9.8c3.7,2,7.7,3.1,11.8,3.1
			c6.1,0,11.5-1.8,16.2-5.4c3.7-2.8,8.1-8.2,8.1-17.4V190.9C1335.7,181.7,1331.3,176.3,1327.6,173.5z M1224.9,208.2
			c8.1,0,16.2,1.3,23.9,4c7.5,2.6,14.3,6.5,20.2,11.8c5.8,5.3,10.5,12.2,14.1,20.6c3.6,8.5,5.4,18.7,5.4,30.5
			c0,12-1.8,22.3-5.4,30.7c-3.6,8.3-8.3,15.2-14.1,20.7c-5.8,5.4-12.6,9.4-20.1,12c-15.6,5.3-32.3,5.3-47.9,0
			c-7.5-2.5-14.3-6.6-20.1-12c-5.8-5.4-10.6-12.4-14.2-20.7c-3.6-8.3-5.4-18.6-5.4-30.7c0-11.8,1.8-22.1,5.4-30.5
			c3.5-8.4,8.3-15.3,14.1-20.6c5.9-5.3,12.6-9.3,20-11.9C1208.5,209.6,1216.6,208.2,1224.9,208.2z"/>
		<path fill="#82B841" d="M1587.6,73c-4.4-2.8-9.5-4.3-15.1-4.3c-5.6,0-10.6,1.4-15.1,4.3c-5.5,3.5-8.5,9.3-8.5,16.4l0,90.9
			c-9.1-6.1-19-10.8-29.5-13.9c-11-3.3-22.5-5-34.1-5c-13.4,0-26.8,2.3-40,6.9c-13.3,4.7-25.3,11.9-35.7,21.5
			c-10.4,9.6-18.9,21.6-25.3,35.8c-6.5,14.3-9.8,31.2-9.8,50.2c0,19,3.2,35.9,9.6,50.2c6.4,14.3,14.9,26.3,25.4,35.8
			c10.5,9.4,22.5,16.6,35.8,21.2c13.1,4.6,26.6,6.9,40,6.9c11.5,0,23-1.6,34-4.7c11.2-3.2,21.7-8.3,31.2-15.2
			c0.6,0.6,1.1,1.2,1.5,1.9c4,7.1,11.2,11.1,20.5,11.1c6.3,0,11.7-2,16.3-6c4.8-4.2,7.3-9.9,7.3-16.5V89.4
			C1596.1,82.4,1593.1,76.5,1587.6,73z M1548.9,275.9c0,11.8-1.8,22.1-5.4,30.5c-3.5,8.4-8.3,15.3-14.1,20.6
			c-5.8,5.3-12.6,9.3-20.2,11.8c-7.8,2.6-15.8,4-23.9,4c-8.3,0-16.4-1.3-24.1-4c-7.4-2.6-14.2-6.5-20-11.9
			c-5.8-5.3-10.5-12.2-14.1-20.6c-3.6-8.5-5.4-18.7-5.4-30.5c0-12,1.8-22.3,5.4-30.7c3.6-8.3,8.3-15.3,14.2-20.7
			c5.8-5.4,12.6-9.4,20.1-12c7.8-2.6,15.8-4,23.9-4c8.1,0,16.2,1.3,23.9,4c7.5,2.5,14.3,6.6,20.1,12c5.8,5.4,10.6,12.4,14.2,20.7
			C1547.1,253.5,1548.9,263.9,1548.9,275.9z"/>
		<path fill="#82B841" d="M1752,342.8c-8.1,0-16.2-1.3-23.9-4c-7.5-2.5-14.3-6.6-20.1-12c-5.8-5.4-10.6-12.4-14.1-20.7
			c-3.6-8.3-5.4-18.6-5.4-30.7V90.1c0-8.7-4.2-13.7-7.8-16.4c-4.4-3.3-9.7-5-15.8-5s-11.3,1.7-15.8,5c-3.6,2.7-7.8,7.7-7.8,16.4
			v185.4c0,19,3.3,35.9,9.8,50.2c6.4,14.2,15,26.3,25.3,35.8c10.4,9.6,22.4,16.8,35.7,21.5c13.1,4.6,26.6,6.9,40,6.9
			c6.8,0,12.6-2.7,16.5-8c3.5-4.6,5.2-9.8,5.2-15.6c0-5.8-1.8-11.1-5.2-15.6C1764.6,345.5,1758.9,342.8,1752,342.8z"/>
		<path fill="#82B841" d="M1997.9,226.2c-6.5-14.1-15.1-26.1-25.6-35.5c-10.5-9.4-22.5-16.5-35.6-21.2c-26-9.2-53.5-9.2-79.8,0
			c-13.3,4.6-25.3,11.8-35.8,21.2c-10.5,9.5-19.1,21.5-25.4,35.8c-6.3,14.3-9.6,31.2-9.6,50.2c0,19,3.3,35.9,9.8,50.2
			c6.4,14.2,15,26.3,25.3,35.8c10.4,9.6,22.4,16.8,35.7,21.5c13.1,4.6,26.6,6.9,40,6.9c16.8,0,32.8-3.3,47.6-9.9l0.2-0.1
			c8.2-3.9,11.2-9.9,12.2-14.2c1.3-5.6,0.7-11-1.8-16.2c-2.1-4.9-4.8-8.3-8.1-10.6c-2.9-2-5.9-3.3-8.8-3.9c-3.4-0.7-6.5-0.5-9.4,0.5
			c-1.6,0.6-2.6,1-3.4,1.4c-8.9,3.9-18.5,5.8-28.4,5.8c-11.6,0-22.7-2.7-32.9-7.9c-6.5-3.3-12-7.8-16.6-13.6l140.3-22.3l0.2,0
			c6-1.1,10.8-4,14.5-8.6c3.5-4.5,5.3-9.6,5.3-15.2C2007.7,257.2,2004.4,240.4,1997.9,226.2z M1897,209.7c7,0,14.1,1,21,3
			c6.7,1.9,12.9,5,18.4,9.1c5.5,4.1,10.3,9.4,14.3,15.7c3.4,5.5,6.1,11.9,7.8,19.2l-125.1,19.9v-0.1c0-11.8,1.8-22.1,5.4-30.5
			c3.5-8.4,8.3-15.3,14.1-20.6c5.9-5.3,12.6-9.3,20-11.9C1880.5,211,1888.6,209.7,1897,209.7z"/>
	</g>
</g>
</svg>
